<?xml version="1.0" encoding="UTF-8"?>
<svg id="Layer_2" data-name="Layer 2" xmlns="http://www.w3.org/2000/svg" viewBox="0 0 560.58 115.69">
  <defs>
    <style>
      .cls-1 {
        fill: #fff;
      }
    </style>
  </defs>
  <g id="Layer_1-2" data-name="Layer 1">
    <g>
      <path class="cls-1" d="M19.5,48.55L.23,2.49C-.41,1,.31,0,1.87,0h9.03c1.21,0,2.06.5,2.49,1.63l14.43,35.47L42.25,1.63c.43-1.14,1.21-1.63,2.42-1.63h9.03c1.56,0,2.27,1,1.64,2.49l-19.27,46.07c-.43,1.07-1.28,1.64-2.49,1.64h-11.59c-1.21,0-2.06-.57-2.49-1.64Z"/>
      <path class="cls-1" d="M60.87,48.06V2.13c0-1.35.78-2.13,2.13-2.13h8.32c1.35,0,2.13.78,2.13,2.13v45.92c0,1.35-.78,2.13-2.13,2.13h-8.32c-1.35,0-2.13-.78-2.13-2.13Z"/>
      <path class="cls-1" d="M82.41,48.06V2.13c0-1.35.78-2.13,2.13-2.13h8.18c1.14,0,1.92.43,2.63,1.28l23.1,29.5V2.13c0-1.35.78-2.13,2.13-2.13h8.39c1.35,0,2.13.78,2.13,2.13v45.92c0,1.35-.78,2.13-2.13,2.13h-8.18c-1.14,0-1.92-.43-2.63-1.28l-23.1-29.36v28.51c0,1.35-.78,2.13-2.13,2.13h-8.39c-1.35,0-2.13-.78-2.13-2.13Z"/>
      <path class="cls-1" d="M156.06,48.06v-11.8L135.73,2.56c-.85-1.49-.28-2.56,1.42-2.56h9.74c1.14,0,1.99.43,2.56,1.49l12.94,22.89,13.08-22.89c.57-1.07,1.42-1.49,2.56-1.49h9.6c1.71,0,2.27,1.07,1.42,2.56l-20.33,33.7v11.8c0,1.35-.78,2.13-2.13,2.13h-8.39c-1.35,0-2.13-.78-2.13-2.13Z"/>
      <g>
        <path class="cls-1" d="M36.14,115.69H5.78c-2.17,0-3.63-1.46-3.63-3.63v-45.92c0-2.17,1.46-3.63,3.63-3.63h30.36c11.96,0,18.28,7.03,18.28,20.34v12.8c0,13.12-6.32,20.05-18.28,20.05ZM5.78,65.5c-.52,0-.63.11-.63.63v45.92c0,.52.11.63.63.63h30.36c10.28,0,15.28-5.58,15.28-17.05v-12.8c0-11.67-5-17.34-15.28-17.34H5.78ZM34.57,103.75H14.8v-29.16h19.77c3.81,0,7.33,1.01,7.33,8.32v12.58c0,7.27-3.71,8.25-7.33,8.25ZM17.8,100.75h16.77c2.32,0,4.33,0,4.33-5.25v-12.58c0-5.08-1.56-5.32-4.33-5.32h-16.77v23.16Z"/>
        <path class="cls-1" d="M101.25,115.69h-38.18c-2.17,0-3.63-1.46-3.63-3.63v-45.92c0-2.17,1.46-3.63,3.63-3.63h38.18c2.17,0,3.63,1.46,3.63,3.63v7.82c0,2.17-1.46,3.63-3.63,3.63h-26.23v4.39h15.35c2.17,0,3.63,1.46,3.63,3.63v6.68c0,2.17-1.46,3.63-3.63,3.63h-15.35v4.68h26.23c2.17,0,3.63,1.46,3.63,3.63v7.82c0,2.17-1.46,3.63-3.63,3.63ZM63.08,65.5c-.52,0-.63.11-.63.63v45.92c0,.52.11.63.63.63h38.18c.52,0,.63-.11.63-.63v-7.82c0-.52-.11-.63-.63-.63h-29.23v-10.68h18.35c.52,0,.63-.11.63-.63v-6.68c0-.52-.11-.63-.63-.63h-18.35v-10.39h29.23c.52,0,.63-.11.63-.63v-7.82c0-.52-.11-.63-.63-.63h-38.18Z"/>
        <path class="cls-1" d="M160.05,115.69h-15.85c-11.49,0-18.35-7.02-18.35-18.77v-15.57c0-11.8,6.86-18.85,18.35-18.85h15.85c11.49,0,18.35,7.05,18.35,18.85,0,2.09-1.46,3.49-3.63,3.49h-8.39c-3.46,0-3.63-2.26-3.63-2.71v-1.21c0-3.33-.68-3.33-2.69-3.33h-15.85c-2.02,0-2.69,0-2.69,3.33v16.42c0,3.26.84,3.26,2.69,3.26h15.85c1.85,0,2.69,0,2.69-3.26v-1.07c0-2.17,1.46-3.63,3.63-3.63h8.39c2.68,0,3.63,1.54,3.63,2.85v1.42c0,11.76-6.86,18.77-18.35,18.77ZM144.19,65.5c-5.73,0-15.35,2.06-15.35,15.85v15.57c0,13.73,9.62,15.77,15.35,15.77h15.85c5.73,0,15.35-2.05,15.35-15.77v-1.2c-.12-.03-.33-.07-.63-.07h-8.39c-.52,0-.63.11-.63.63v1.07c0,5.52-2.88,6.26-5.69,6.26h-15.85c-2.82,0-5.69-.74-5.69-6.26v-16.42c0-5.26,2.28-6.33,5.69-6.33h15.85c3.42,0,5.69,1.08,5.69,6.33v.86c.13.03.34.05.63.05h8.39c.63,0,.63-.15.63-.49,0-13.79-9.62-15.85-15.35-15.85h-15.85Z"/>
        <path class="cls-1" d="M233.2,115.69h-9.53c-1.81,0-3.22-.94-3.88-2.57l-2.17-5.25h-22.38l-2.18,5.26c-.65,1.62-2.06,2.56-3.87,2.56h-9.53c-1.76,0-2.59-.85-2.92-1.35-.33-.51-.79-1.6-.09-3.23l20.98-46.1c.73-1.66,2.03-2.51,3.85-2.51h9.88c1.83,0,3.13.85,3.86,2.53l20.96,46.05c.71,1.66.25,2.75-.08,3.26-.33.51-1.16,1.35-2.92,1.35ZM193.24,104.87h26.39l2.95,7.13c.17.42.42.69,1.1.69h9.53c.17,0,.29-.02.37-.04-.01-.08-.05-.2-.11-.36l-20.96-46.04c-.26-.6-.5-.76-1.12-.76h-9.88c-.62,0-.86.16-1.11.74l-20.98,46.09c-.06.14-.09.25-.1.33.08.02.2.04.37.04h9.53c.68,0,.93-.28,1.1-.69l2.95-7.13ZM216.68,97.63h-20.42l10.21-24.61,10.21,24.61ZM200.75,94.63h11.43l-5.72-13.78-5.72,13.78Z"/>
        <path class="cls-1" d="M285.17,115.69h-9.6c-1.71,0-3.05-.75-3.86-2.18l-5.79-9.27h-11.32v7.81c0,2.17-1.46,3.63-3.63,3.63h-8.39c-2.17,0-3.63-1.46-3.63-3.63v-45.92c0-2.17,1.46-3.63,3.63-3.63h25.81c14.49,0,21.83,6.84,21.83,20.34v1.35c0,8.71-2.9,14.66-8.64,17.74l6.16,8.85c1.09,1.63.74,2.83.43,3.4-.3.57-1.1,1.52-3.02,1.52ZM251.6,101.24h15.98l6.7,10.73c.27.47.55.72,1.29.72h9.6c.09,0,.17,0,.23-.01-.03-.06-.07-.13-.13-.22l-8.24-11.83,1.74-.71c5.6-2.27,8.45-7.56,8.45-15.74v-1.35c0-11.83-5.98-17.34-18.83-17.34h-25.81c-.52,0-.63.11-.63.63v45.92c0,.52.11.63.63.63h8.39c.52,0,.63-.11.63-.63v-10.81ZM267.32,92.3h-15.72v-17.72h15.72c5.15,0,10.17.64,10.17,8.32v1.14c0,7.62-5.03,8.25-10.17,8.25ZM254.6,89.3h12.72c5.47,0,7.17-.72,7.17-5.25v-1.14c0-4.59-1.7-5.32-7.17-5.32h-12.72v11.72Z"/>
        <path class="cls-1" d="M324.55,115.69h-11.59c-1.81,0-3.22-.94-3.88-2.57l-19.26-46.06c-.68-1.59-.22-2.69.12-3.2.58-.88,1.61-1.37,2.9-1.37h9.03c1.88,0,3.26.93,3.89,2.61l13.03,32.02,13.04-32.06c.62-1.67,1.95-2.57,3.81-2.57h9.03c1.29,0,2.32.49,2.9,1.37.34.51.8,1.61.11,3.21l-19.26,46.05c-.65,1.62-2.06,2.56-3.87,2.56ZM292.48,65.54c.01.08.04.2.11.36l19.28,46.1c.17.42.42.69,1.1.69h11.59c.68,0,.93-.28,1.1-.69l19.27-46.09c.07-.17.1-.29.11-.37-.07-.02-.19-.04-.37-.04h-9.03c-.65,0-.83.17-1.01.66l-15.84,38.93-15.82-38.89c-.18-.48-.39-.7-1.1-.7h-9.03c-.17,0-.29.02-.36.04Z"/>
        <path class="cls-1" d="M397.99,115.69h-9.53c-1.81,0-3.22-.94-3.88-2.57l-2.17-5.25h-22.38l-2.18,5.26c-.65,1.62-2.06,2.56-3.87,2.56h-9.53c-1.76,0-2.59-.85-2.92-1.35-.33-.51-.79-1.6-.09-3.23l20.99-46.1c.73-1.66,2.03-2.51,3.85-2.51h9.88c1.83,0,3.13.85,3.86,2.53l20.96,46.05c.71,1.66.25,2.75-.08,3.26-.33.51-1.16,1.35-2.92,1.35ZM358.03,104.87h26.39l2.95,7.13c.17.42.42.69,1.1.69h9.53c.17,0,.29-.02.37-.04-.01-.08-.05-.2-.11-.36l-20.96-46.04c-.26-.6-.5-.76-1.12-.76h-9.88c-.62,0-.86.16-1.11.74l-20.98,46.09c-.06.14-.09.25-.1.33.08.02.2.04.37.04h9.53c.68,0,.93-.28,1.1-.69l2.95-7.13ZM381.47,97.63h-20.42l10.21-24.61,10.21,24.61ZM365.54,94.63h11.43l-5.72-13.78-5.72,13.78Z"/>
        <path class="cls-1" d="M443.84,115.69h-36.47c-2.17,0-3.63-1.46-3.63-3.63v-45.92c0-2.17,1.46-3.63,3.63-3.63h8.39c2.17,0,3.63,1.46,3.63,3.63v34.47h24.45c2.17,0,3.63,1.46,3.63,3.63v7.82c0,2.17-1.46,3.63-3.63,3.63ZM407.37,65.5c-.52,0-.63.11-.63.63v45.92c0,.52.11.63.63.63h36.47c.52,0,.63-.11.63-.63v-7.82c0-.52-.11-.63-.63-.63h-27.45v-37.47c0-.52-.11-.63-.63-.63h-8.39Z"/>
        <path class="cls-1" d="M496.52,115.69h-8.39c-2.17,0-3.63-1.46-3.63-3.63v-15.77h-19.04v15.77c0,2.17-1.46,3.63-3.63,3.63h-8.39c-2.17,0-3.63-1.46-3.63-3.63v-45.92c0-2.17,1.46-3.63,3.63-3.63h8.39c2.17,0,3.63,1.46,3.63,3.63v16.2h19.04v-16.2c0-2.17,1.46-3.63,3.63-3.63h8.39c2.17,0,3.63,1.46,3.63,3.63v45.92c0,2.17-1.46,3.63-3.63,3.63ZM462.46,93.28h25.04v18.77c0,.52.11.63.63.63h8.39c.52,0,.63-.11.63-.63v-45.92c0-.52-.11-.63-.63-.63h-8.39c-.52,0-.63.11-.63.63v19.2h-25.04v-19.2c0-.52-.11-.63-.63-.63h-8.39c-.52,0-.63.11-.63.63v45.92c0,.52.11.63.63.63h8.39c.52,0,.63-.11.63-.63v-18.77Z"/>
        <path class="cls-1" d="M542.23,115.69h-18.7c-11.49,0-18.35-7.02-18.35-18.77v-15.57c0-11.8,6.86-18.85,18.35-18.85h18.7c11.49,0,18.35,7.05,18.35,18.85v15.57c0,11.76-6.86,18.77-18.35,18.77ZM523.54,65.5c-5.73,0-15.35,2.06-15.35,15.85v15.57c0,13.73,9.62,15.77,15.35,15.77h18.7c5.73,0,15.35-2.05,15.35-15.77v-15.57c0-13.79-9.62-15.85-15.35-15.85h-18.7ZM542.23,103.6h-18.7c-2.82,0-5.69-.74-5.69-6.26v-16.42c0-5.26,2.28-6.33,5.69-6.33h18.7c3.42,0,5.69,1.08,5.69,6.33v16.42c0,5.52-2.88,6.26-5.69,6.26ZM523.54,77.59c-2.02,0-2.69,0-2.69,3.33v16.42c0,3.26.84,3.26,2.69,3.26h18.7c1.85,0,2.69,0,2.69-3.26v-16.42c0-3.33-.68-3.33-2.69-3.33h-18.7Z"/>
      </g>
    </g>
  </g>
</svg>